<?xml version="1.0" standalone="no"?>
<!DOCTYPE svg PUBLIC "-//W3C//DTD SVG 20010904//EN"
 "http://www.w3.org/TR/2001/REC-SVG-20010904/DTD/svg10.dtd">
<svg version="1.0" xmlns="http://www.w3.org/2000/svg"
 width="1470.000000pt" height="1470.000000pt" viewBox="0 0 1470.000000 1470.000000"
 preserveAspectRatio="xMidYMid meet">
<metadata>
Created by potrace 1.11, written by Peter Selinger 2001-2013
</metadata>
<g transform="translate(0.000000,1470.000000) scale(0.100000,-0.100000)"
fill="#000000" stroke="none">
<path d="M7278 14615 c-2 -1 -64 -5 -138 -9 -74 -3 -148 -8 -165 -10 -16 -3
-78 -12 -136 -21 -131 -19 -156 -24 -194 -32 -16 -4 -34 -8 -40 -9 -394 -84
-849 -284 -1199 -528 -254 -177 -529 -435 -716 -671 -187 -235 -327 -467 -459
-758 -17 -37 -31 -70 -31 -73 0 -3 -7 -20 -15 -37 -58 -126 -164 -500 -190
-672 -21 -142 -29 -209 -40 -325 -6 -67 -7 -435 -1 -470 3 -14 7 -56 11 -95 6
-73 34 -255 40 -264 1 -3 6 -23 9 -43 21 -131 110 -413 182 -577 70 -158 227
-452 246 -459 4 -2 8 -8 8 -13 0 -27 217 -329 355 -494 246 -294 509 -559 869
-876 21 -19 44 -39 50 -44 6 -6 38 -33 71 -60 33 -28 62 -52 65 -55 3 -3 68
-57 145 -120 77 -63 142 -117 145 -120 3 -3 48 -39 100 -80 52 -41 97 -77 100
-80 3 -3 48 -39 100 -80 52 -41 104 -82 115 -91 11 -9 113 -92 227 -183 115
-91 218 -175 230 -185 13 -10 84 -70 158 -132 931 -776 1320 -1358 1305 -1949
-2 -63 -6 -126 -9 -140 -3 -14 -11 -50 -17 -80 -28 -137 -116 -325 -209 -445
-99 -128 -254 -254 -399 -326 -77 -37 -207 -84 -260 -94 -14 -2 -48 -9 -76
-14 -52 -10 -311 -8 -355 3 -14 3 -48 11 -77 16 -116 24 -266 91 -386 171 -52
36 -227 202 -262 250 -115 157 -197 356 -221 539 -9 69 -10 217 -1 290 21 178
108 393 219 540 100 131 110 147 129 203 25 76 20 195 -13 267 -33 73 -108
149 -183 185 -53 26 -71 29 -155 30 -82 0 -103 -4 -152 -27 -66 -30 -129 -86
-190 -166 -23 -31 -45 -59 -48 -62 -13 -12 -111 -171 -143 -231 -57 -107 -125
-287 -156 -414 -50 -201 -60 -291 -56 -505 2 -91 6 -181 10 -200 3 -19 13 -75
22 -125 19 -111 88 -323 139 -430 132 -277 332 -525 569 -705 380 -290 861
-424 1335 -373 63 6 124 14 136 17 11 3 37 8 57 11 58 10 226 60 311 94 364
146 694 422 903 756 45 71 128 237 154 303 24 65 77 234 83 266 2 12 9 48 14
81 6 33 14 76 17 95 14 75 14 415 0 515 -18 129 -18 131 -49 251 -66 264 -170
490 -356 778 -59 92 -204 278 -307 395 -85 96 -422 433 -532 531 -46 41 -89
80 -95 85 -15 14 -157 135 -187 160 -204 170 -329 271 -754 612 -694 556 -868
706 -1186 1023 -306 305 -458 488 -664 802 -62 96 -163 288 -212 408 -41 98
-104 280 -97 280 3 0 0 8 -5 18 -13 25 -58 250 -68 342 -15 142 -8 495 11 597
3 11 8 43 11 70 11 75 62 289 92 378 289 884 998 1545 1898 1769 55 14 118 28
140 31 22 4 47 8 55 10 44 12 170 24 310 30 189 9 221 14 285 44 166 79 250
275 193 451 -35 109 -139 209 -249 239 -39 11 -163 22 -171 16z"/>
<path d="M7267 13115 c-1 -2 -38 -5 -82 -9 -234 -19 -431 -73 -655 -178 -369
-175 -684 -485 -869 -855 -77 -155 -145 -354 -167 -488 -3 -20 -8 -47 -10 -59
-20 -100 -26 -383 -11 -511 27 -229 131 -504 281 -740 78 -124 79 -126 93
-144 189 -255 428 -509 723 -770 52 -46 111 -98 130 -115 87 -77 428 -354 735
-596 127 -100 243 -192 259 -206 16 -13 43 -34 60 -46 16 -13 44 -35 60 -49
17 -14 83 -67 146 -118 63 -51 129 -105 145 -119 17 -15 55 -47 85 -72 30 -25
71 -59 90 -76 428 -378 659 -608 917 -914 108 -128 277 -367 378 -535 177
-294 333 -698 380 -990 4 -22 9 -49 11 -60 1 -11 6 -42 9 -70 4 -27 10 -72 15
-99 8 -50 5 -508 -4 -561 -3 -16 -7 -46 -10 -65 -30 -230 -100 -477 -196 -696
-32 -75 -130 -266 -151 -296 -11 -14 -19 -29 -19 -32 0 -9 -107 -162 -179
-256 -84 -110 -332 -358 -441 -441 -277 -213 -529 -347 -840 -447 -94 -30
-207 -61 -245 -67 -11 -2 -31 -6 -45 -9 -47 -10 -85 -16 -130 -21 -25 -3 -56
-8 -69 -10 -53 -9 -223 -19 -331 -18 -514 1 -1013 152 -1445 438 -159 105
-262 190 -420 349 -347 348 -572 742 -691 1211 -14 55 -27 109 -29 120 -2 11
-8 47 -14 80 -6 33 -13 74 -15 90 -21 119 -28 456 -13 619 4 49 10 92 12 95 2
4 6 33 10 65 3 33 8 62 10 65 2 4 6 26 10 49 8 56 70 280 100 363 86 238 180
417 352 669 19 27 140 177 159 197 43 44 83 144 87 221 4 63 -21 164 -55 217
-36 56 -101 113 -167 144 -48 22 -69 26 -151 26 -84 0 -102 -4 -153 -29 -81
-40 -144 -104 -283 -286 -53 -69 -185 -266 -228 -340 -51 -89 -185 -367 -221
-460 -61 -156 -139 -412 -159 -520 -2 -14 -9 -47 -15 -75 -12 -57 -18 -89 -27
-154 -3 -25 -8 -57 -10 -71 -2 -14 -6 -56 -10 -95 -3 -38 -7 -86 -10 -105 -5
-46 -5 -428 0 -460 2 -14 7 -63 11 -110 3 -47 8 -92 10 -100 2 -8 6 -37 10
-65 8 -68 50 -272 75 -370 147 -562 461 -1106 880 -1525 110 -109 275 -253
371 -323 468 -341 915 -531 1484 -631 52 -10 177 -25 260 -32 164 -15 583 -8
683 11 9 1 44 6 77 10 63 7 235 39 295 55 19 5 46 11 60 14 25 4 118 30 220
61 247 75 609 252 855 418 220 149 475 372 639 560 25 29 57 66 72 82 60 69
204 268 277 385 82 129 226 412 272 535 30 78 84 232 90 255 2 8 16 56 30 107
30 110 62 255 79 368 22 145 21 137 31 295 13 183 7 504 -10 620 -2 14 -7 50
-10 80 -4 30 -9 57 -10 60 -2 3 -7 33 -10 65 -4 33 -9 63 -11 66 -2 3 -10 41
-19 85 -39 189 -134 481 -222 679 -243 544 -583 1015 -1123 1556 -396 396
-655 617 -1675 1424 -388 307 -619 508 -851 739 -77 78 -165 170 -195 206 -29
36 -56 67 -59 70 -16 16 -122 165 -156 220 -225 360 -239 724 -41 1100 146
277 439 502 739 569 85 19 105 22 203 27 167 8 243 36 324 116 197 196 107
544 -159 616 -38 11 -175 23 -183 17z"/>
<path d="M7280 11533 c-74 -19 -127 -47 -168 -91 -202 -216 -36 -567 258 -547
119 8 236 96 279 208 26 69 22 182 -8 249 -43 94 -145 172 -242 184 -24 3 -48
7 -54 8 -5 2 -35 -3 -65 -11z"/>
<path d="M8183 10756 c-286 -94 -357 -428 -137 -642 56 -55 114 -98 409 -309
212 -151 558 -407 575 -425 3 -3 52 -43 110 -90 403 -323 794 -701 1115 -1075
241 -282 525 -691 675 -972 17 -32 35 -65 40 -73 20 -32 160 -330 196 -415
159 -386 280 -845 319 -1215 3 -30 8 -71 10 -90 36 -295 17 -824 -41 -1125 -2
-11 -9 -49 -14 -84 -10 -60 -80 -336 -113 -446 -71 -236 -232 -607 -354 -817
-125 -215 -235 -375 -392 -570 -138 -174 -457 -494 -596 -601 -5 -4 -23 -19
-40 -33 -16 -14 -59 -46 -95 -71 -36 -26 -67 -50 -70 -53 -10 -13 -189 -131
-295 -195 -130 -79 -471 -248 -605 -300 -198 -77 -494 -168 -655 -200 -122
-24 -276 -50 -370 -61 -33 -3 -67 -8 -76 -9 -100 -18 -568 -25 -739 -11 -160
13 -180 15 -216 21 -20 3 -56 8 -82 11 -38 4 -303 54 -362 69 -164 38 -424
119 -535 165 -11 4 -60 25 -110 45 -293 120 -668 337 -905 522 -275 215 -526
456 -697 669 -26 33 -54 66 -61 74 -28 33 -143 190 -199 275 -212 317 -395
698 -505 1055 -34 111 -95 341 -103 391 -3 19 -12 68 -20 109 -8 41 -17 95
-20 120 -3 25 -7 56 -10 70 -14 77 -29 283 -39 540 -5 114 -19 165 -67 236
-125 185 -409 208 -567 46 -84 -87 -109 -164 -107 -337 1 -112 14 -361 20
-395 1 -8 6 -46 10 -85 4 -38 8 -77 10 -85 2 -8 6 -37 9 -65 18 -139 68 -388
104 -525 44 -165 55 -200 96 -325 282 -844 771 -1569 1468 -2177 56 -48 147
-122 243 -196 107 -82 359 -252 374 -252 5 0 11 -4 13 -8 2 -5 55 -38 118 -74
544 -311 1108 -504 1760 -602 19 -3 60 -8 90 -11 30 -4 69 -8 85 -10 185 -26
904 -26 1029 0 12 2 46 7 77 10 31 3 65 7 75 9 11 2 39 7 64 10 50 7 79 12
160 27 30 6 66 12 80 15 14 2 36 7 50 10 50 12 65 15 90 20 14 3 33 7 42 10 9
3 25 7 35 9 10 2 36 9 58 15 22 6 49 13 60 15 91 21 318 99 505 172 157 62
464 206 560 263 25 15 97 58 160 95 450 268 884 639 1221 1044 45 53 88 105
97 116 82 98 309 425 334 480 6 14 15 25 20 25 4 0 8 4 8 9 0 5 24 51 54 103
180 313 328 658 435 1012 43 143 90 325 106 411 17 95 45 255 50 285 3 19 7
46 10 60 2 14 7 56 11 95 3 38 7 77 9 86 30 153 23 857 -9 1074 -3 17 -8 53
-11 80 -12 95 -46 300 -55 335 -5 19 -12 52 -15 73 -22 138 -125 495 -205 714
-90 244 -242 579 -351 773 -186 330 -409 663 -633 940 -55 69 -198 240 -221
266 -227 251 -554 578 -735 734 -41 36 -132 114 -144 125 -180 163 -563 458
-961 741 -252 179 -281 200 -343 255 -78 70 -149 101 -246 105 -52 3 -96 -1
-123 -10z"/>
<path d="M7290 5417 c-127 -23 -233 -123 -258 -243 -38 -174 57 -338 224 -387
121 -35 248 2 334 100 57 65 79 131 76 223 -4 93 -29 151 -92 215 -73 74 -186
111 -284 92z"/>
</g>
</svg>
